# xmcd CD database file
#
# Track frame offsets:
#	150
#	9954
#	21229
#	31834
#	43244
#	58246
#	69555
#	81454
#	93961
#	104511
#	113392
#	122561
#	137494
#	147707
#
# Disc length: 2153 seconds
#
# Revision: 1
# Processed by: cddbd v1.4PL0 Copyright (c) Steve Scherf et al.
# Submitted via: CDex 1.50
#
DISCID=be08670e
DTITLE=Robert Earl Reed - Razorback Country!
DYEAR=2002
DGENRE=Country
TTITLE0=Call the Hawgs
TTITLE1=Raxorback Memories
TTITLE2=Razorback Fever
TTITLE3=She Went To Arkansas
TTITLE4=Great State of Arkansas
TTITLE5=Razorback Road hawgs
TTITLE6=High On The Hawgs
TTITLE7=Walking On
TTITLE8=Razorback Boogie
TTITLE9=Cheerleader From Razorback U
TTITLE10=Just Ask Ole Miss
TTITLE11=Razorback Ball
TTITLE12=The Best Run For Arkansas
TTITLE13=Razorback Blues
EXTD=YEAR: 2002
EXTT0=
EXTT1=
EXTT2=
EXTT3=
EXTT4=
EXTT5=
EXTT6=
EXTT7=
EXTT8=
EXTT9=
EXTT10=
EXTT11=
EXTT12=
EXTT13=
PLAYORDER=
